# xmcd
#
# Track frame offsets: 
#        150
#        16265
#        37540
#        53960
#        70735
#        81525
#        96730
#        115110
#        126830
#        151870
#        165605
#        183065
#        199620
#        212600
#        230750
#        247315
#        263435
#        285162
#        299260
#        314765
#
# Disc length: 4383 seconds
#
# Revision: 6
# Processed by: cddbd v1.5.2PL0 Copyright (c) Steve Scherf et al.
# Submitted via: ExactAudioCopyFreeDBPlugin 1.0
#
DISCID=18111d14
DTITLE=Emmylou Harris - Portraits - CD 1 von 3 - RepRec 9362-45308-2
DYEAR=1996
DGENRE=country
TTITLE0=Boulder To Birmingham
TTITLE1=Before Believing
TTITLE2=Emmylou Harris with Gram Parsons - Love Hurts
TTITLE3=Emmylou Harris with Gram Parsons - In My Hour Of Darkness
TTITLE4=Emmylou Harris with Gram Parsons - Angels Rejoiced Last Night
TTITLE5=Emmylou Harris with Gram Parsons - Sleepness Nights
TTITLE6=Too Far Gone
TTITLE7=If I Could Only Win Your Love
TTITLE8=Till I Gain Control Again
TTITLE9=One Of Those Days
TTITLE10=Together Again
TTITLE11=Here, There And Everywhere
TTITLE12=You're Still On My Mind
TTITLE13=Sweet Dreams
TTITLE14=Luxury Liner
TTITLE15=Making Believe
TTITLE16=Pancho and Lefty
TTITLE17=Two More Bottles Of Wine
TTITLE18=You Never Can Tell
TTITLE19=Easy From Now On
EXTD=
EXTT0=
EXTT1=
EXTT2=w. gram parsons
EXTT3=w. gram parsons
EXTT4=w. gram parsons
EXTT5=
EXTT6=
EXTT7=
EXTT8=
EXTT9=
EXTT10=
EXTT11=
EXTT12=
EXTT13=
EXTT14=
EXTT15=
EXTT16=
EXTT17=
EXTT18=
EXTT19=
PLAYORDER=
